
<svg id="svg" version="1.1" xmlns="http://www.w3.org/2000/svg" xmlns:xlink="http://www.w3.org/1999/xlink" width="400" height="400" viewBox="0, 0, 400,400">
    <g id="svgg">
        <path id="path0" d="M50.400 24.800 C 50.400 25.020,49.869 25.200,49.220 25.200 C 47.553 25.200,44.000 26.005,44.000 26.382 C 44.000 26.556,43.280 26.813,42.400 26.954 C 41.520 27.094,40.800 27.387,40.800 27.605 C 40.800 27.822,40.524 28.000,40.187 28.000 C 39.851 28.000,39.478 28.254,39.359 28.564 C 39.239 28.874,38.705 29.237,38.171 29.372 C 37.637 29.506,37.200 29.792,37.200 30.008 C 37.200 30.223,37.016 30.400,36.792 30.400 C 36.284 30.400,30.981 35.752,30.660 36.588 C 30.531 36.925,30.259 37.200,30.056 37.200 C 29.853 37.200,29.574 37.650,29.436 38.200 C 29.298 38.750,29.022 39.200,28.824 39.200 C 28.626 39.200,28.345 39.740,28.200 40.400 C 28.055 41.060,27.791 41.600,27.613 41.600 C 27.435 41.600,27.171 42.230,27.026 43.000 C 26.882 43.770,26.619 44.400,26.442 44.400 C 24.516 44.400,24.506 354.036,26.433 354.734 C 26.635 354.807,26.914 355.572,27.052 356.434 C 27.190 357.295,27.445 358.000,27.619 358.000 C 27.794 358.000,28.052 358.525,28.193 359.167 C 28.334 359.808,28.708 360.433,29.024 360.554 C 29.341 360.676,29.600 361.051,29.600 361.387 C 29.600 361.724,29.777 362.000,29.992 362.000 C 30.208 362.000,30.498 362.450,30.636 363.000 C 30.774 363.550,31.028 364.000,31.200 364.000 C 31.608 364.000,36.000 368.392,36.000 368.800 C 36.000 368.972,36.450 369.226,37.000 369.364 C 37.550 369.502,38.000 369.792,38.000 370.008 C 38.000 370.223,38.276 370.400,38.613 370.400 C 38.949 370.400,39.324 370.659,39.446 370.976 C 39.567 371.292,40.192 371.666,40.833 371.807 C 41.475 371.948,42.000 372.206,42.000 372.381 C 42.000 372.555,42.705 372.810,43.566 372.948 C 44.428 373.086,45.193 373.365,45.266 373.567 C 45.964 375.494,355.600 375.484,355.600 373.558 C 355.600 373.381,356.230 373.118,357.000 372.974 C 357.770 372.829,358.400 372.565,358.400 372.387 C 358.400 372.209,358.940 371.945,359.600 371.800 C 360.260 371.655,360.800 371.374,360.800 371.176 C 360.800 370.978,361.237 370.706,361.771 370.572 C 362.305 370.437,362.839 370.074,362.959 369.764 C 363.078 369.454,363.344 369.200,363.551 369.200 C 364.065 369.200,369.600 363.718,369.600 363.208 C 369.600 362.984,369.777 362.800,369.992 362.800 C 370.208 362.800,370.494 362.363,370.628 361.829 C 370.763 361.295,371.126 360.761,371.436 360.641 C 371.746 360.522,372.000 360.149,372.000 359.813 C 372.000 359.476,372.178 359.200,372.395 359.200 C 372.613 359.200,372.906 358.480,373.046 357.600 C 373.187 356.720,373.444 356.000,373.618 356.000 C 373.995 356.000,374.800 352.447,374.800 350.780 C 374.800 350.131,374.980 349.600,375.200 349.600 C 375.466 349.600,375.600 299.333,375.600 199.600 C 375.600 117.100,375.456 49.600,375.280 49.600 C 375.103 49.600,374.761 48.227,374.520 46.548 C 374.278 44.870,373.905 43.385,373.690 43.248 C 373.476 43.112,373.174 42.415,373.018 41.700 C 372.863 40.985,372.590 40.400,372.412 40.400 C 372.233 40.400,371.974 39.950,371.836 39.400 C 371.698 38.850,371.408 38.400,371.192 38.400 C 370.977 38.400,370.800 38.124,370.800 37.787 C 370.800 37.451,370.530 37.071,370.200 36.945 C 369.870 36.818,369.600 36.535,369.600 36.316 C 369.600 35.796,364.204 30.400,363.684 30.400 C 363.465 30.400,363.182 30.130,363.055 29.800 C 362.929 29.470,362.549 29.200,362.213 29.200 C 361.876 29.200,361.600 29.023,361.600 28.808 C 361.600 28.592,361.150 28.302,360.600 28.164 C 360.050 28.026,359.600 27.767,359.600 27.588 C 359.600 27.410,359.015 27.137,358.300 26.982 C 357.585 26.826,356.888 26.524,356.752 26.310 C 356.615 26.095,355.130 25.722,353.452 25.480 C 351.773 25.239,350.400 24.897,350.400 24.720 C 350.400 24.544,282.900 24.400,200.400 24.400 C 100.667 24.400,50.400 24.534,50.400 24.800 M219.744 179.865 L 347.000 306.930 347.000 326.965 L 347.000 347.000 326.941 347.104 L 306.881 347.207 179.941 219.976 L 53.000 92.744 52.896 73.272 C 52.839 62.562,52.878 53.575,52.983 53.300 C 53.133 52.909,57.475 52.800,72.832 52.800 L 92.489 52.800 219.744 179.865 M246.699 74.499 C 258.634 86.433,268.400 96.377,268.400 96.596 C 268.400 97.055,290.440 119.200,290.897 119.200 C 291.064 119.200,291.200 104.259,291.200 85.997 L 291.200 52.795 319.100 52.897 L 347.000 53.000 347.101 154.300 C 347.156 210.015,347.066 255.600,346.901 255.600 C 346.508 255.600,144.400 53.493,144.400 53.100 C 144.400 52.935,162.534 52.800,184.699 52.800 L 224.997 52.800 246.699 74.499 M154.300 245.700 C 209.795 301.195,255.200 346.735,255.200 346.900 C 255.200 347.065,237.035 347.200,214.833 347.200 L 174.467 347.200 141.635 314.100 L 108.803 281.000 108.802 314.103 L 108.800 347.205 80.900 347.103 L 53.000 347.000 52.899 245.900 C 52.844 190.295,52.934 144.800,53.099 144.800 C 53.264 144.800,98.805 190.205,154.300 245.700 " stroke="none" fill="#141414" fill-rule="evenodd">
        </path>
        <path id="path1" d="M52.983 53.300 C 52.878 53.575,52.839 62.562,52.896 73.272 L 53.000 92.744 179.941 219.976 L 306.881 347.207 326.941 347.104 L 347.000 347.000 347.000 326.965 L 347.000 306.930 219.744 179.865 L 92.489 52.800 72.832 52.800 C 57.475 52.800,53.133 52.909,52.983 53.300 M144.400 53.100 C 144.400 53.493,346.508 255.600,346.901 255.600 C 347.066 255.600,347.156 210.015,347.101 154.300 L 347.000 53.000 319.100 52.897 L 291.200 52.795 291.200 85.997 C 291.200 104.259,291.064 119.200,290.897 119.200 C 290.440 119.200,268.400 97.055,268.400 96.596 C 268.400 96.377,258.634 86.433,246.699 74.499 L 224.997 52.800 184.699 52.800 C 162.534 52.800,144.400 52.935,144.400 53.100 M52.899 245.900 L 53.000 347.000 80.900 347.103 L 108.800 347.205 108.802 314.103 L 108.803 281.000 141.635 314.100 L 174.467 347.200 214.833 347.200 C 237.035 347.200,255.200 347.065,255.200 346.900 C 255.200 346.507,53.492 144.800,53.099 144.800 C 52.934 144.800,52.844 190.295,52.899 245.900 " stroke="none" fill="#00b97c" fill-rule="evenodd">
        </path>
    </g>
</svg>